<mxfile host="Electron" modified="2023-11-12T17:30:51.054Z" agent="Mozilla/5.0 (Windows NT 10.0; Win64; x64) AppleWebKit/537.36 (KHTML, like Gecko) draw.io/22.0.3 Chrome/114.0.5735.289 Electron/25.8.4 Safari/537.36" etag="aLaYm-rPyLzQQQHSTqYn" version="22.0.3" type="device">
  <diagram name="Page-1" id="09Qjp3WMO_tafbjr4hqM">
    <mxGraphModel dx="1098" dy="820" grid="1" gridSize="10" guides="1" tooltips="1" connect="1" arrows="1" fold="1" page="1" pageScale="1" pageWidth="850" pageHeight="1100" math="0" shadow="0">
      <root>
        <mxCell id="0" />
        <mxCell id="1" parent="0" />
        <mxCell id="4LlOStWPBczDGAYvNSyu-29" value="" style="rounded=0;whiteSpace=wrap;html=1;" vertex="1" parent="1">
          <mxGeometry x="320" y="720" width="380" height="240" as="geometry" />
        </mxCell>
        <mxCell id="4LlOStWPBczDGAYvNSyu-7" value="" style="rounded=0;whiteSpace=wrap;html=1;" vertex="1" parent="1">
          <mxGeometry x="320" y="265" width="380" height="410" as="geometry" />
        </mxCell>
        <mxCell id="4LlOStWPBczDGAYvNSyu-17" style="edgeStyle=orthogonalEdgeStyle;rounded=0;orthogonalLoop=1;jettySize=auto;html=1;entryX=0.5;entryY=0;entryDx=0;entryDy=0;" edge="1" parent="1" source="4LlOStWPBczDGAYvNSyu-1" target="4LlOStWPBczDGAYvNSyu-3">
          <mxGeometry relative="1" as="geometry" />
        </mxCell>
        <mxCell id="4LlOStWPBczDGAYvNSyu-1" value="Start" style="ellipse;whiteSpace=wrap;html=1;aspect=fixed;" vertex="1" parent="1">
          <mxGeometry x="140" y="40" width="80" height="80" as="geometry" />
        </mxCell>
        <mxCell id="4LlOStWPBczDGAYvNSyu-18" style="edgeStyle=orthogonalEdgeStyle;rounded=0;orthogonalLoop=1;jettySize=auto;html=1;entryX=0.5;entryY=0;entryDx=0;entryDy=0;" edge="1" parent="1" source="4LlOStWPBczDGAYvNSyu-3" target="4LlOStWPBczDGAYvNSyu-4">
          <mxGeometry relative="1" as="geometry" />
        </mxCell>
        <mxCell id="4LlOStWPBczDGAYvNSyu-3" value="Lê parametros" style="rounded=0;whiteSpace=wrap;html=1;" vertex="1" parent="1">
          <mxGeometry x="120" y="160" width="120" height="60" as="geometry" />
        </mxCell>
        <mxCell id="4LlOStWPBczDGAYvNSyu-4" value="Configura e inicia Timer" style="rounded=0;whiteSpace=wrap;html=1;" vertex="1" parent="1">
          <mxGeometry x="120" y="260" width="120" height="60" as="geometry" />
        </mxCell>
        <mxCell id="4LlOStWPBczDGAYvNSyu-23" style="edgeStyle=orthogonalEdgeStyle;rounded=0;orthogonalLoop=1;jettySize=auto;html=1;" edge="1" parent="1" source="4LlOStWPBczDGAYvNSyu-5" target="4LlOStWPBczDGAYvNSyu-10">
          <mxGeometry relative="1" as="geometry" />
        </mxCell>
        <mxCell id="4LlOStWPBczDGAYvNSyu-5" value="Lê service_list" style="rounded=0;whiteSpace=wrap;html=1;" vertex="1" parent="1">
          <mxGeometry x="450" y="160" width="120" height="60" as="geometry" />
        </mxCell>
        <mxCell id="4LlOStWPBczDGAYvNSyu-19" style="edgeStyle=orthogonalEdgeStyle;rounded=0;orthogonalLoop=1;jettySize=auto;html=1;" edge="1" parent="1" source="4LlOStWPBczDGAYvNSyu-6" target="4LlOStWPBczDGAYvNSyu-5">
          <mxGeometry relative="1" as="geometry" />
        </mxCell>
        <mxCell id="4LlOStWPBczDGAYvNSyu-6" value="Elapse do Timer" style="ellipse;whiteSpace=wrap;html=1;aspect=fixed;" vertex="1" parent="1">
          <mxGeometry x="470" y="40" width="80" height="80" as="geometry" />
        </mxCell>
        <mxCell id="4LlOStWPBczDGAYvNSyu-24" style="edgeStyle=orthogonalEdgeStyle;rounded=0;orthogonalLoop=1;jettySize=auto;html=1;" edge="1" parent="1" source="4LlOStWPBczDGAYvNSyu-10" target="4LlOStWPBczDGAYvNSyu-11">
          <mxGeometry relative="1" as="geometry" />
        </mxCell>
        <mxCell id="4LlOStWPBczDGAYvNSyu-10" value="Comanda Stop" style="rounded=0;whiteSpace=wrap;html=1;" vertex="1" parent="1">
          <mxGeometry x="450" y="305" width="120" height="60" as="geometry" />
        </mxCell>
        <mxCell id="4LlOStWPBczDGAYvNSyu-25" style="edgeStyle=orthogonalEdgeStyle;rounded=0;orthogonalLoop=1;jettySize=auto;html=1;" edge="1" parent="1" source="4LlOStWPBczDGAYvNSyu-11" target="4LlOStWPBczDGAYvNSyu-13">
          <mxGeometry relative="1" as="geometry">
            <Array as="points">
              <mxPoint x="600" y="420" />
            </Array>
          </mxGeometry>
        </mxCell>
        <mxCell id="4LlOStWPBczDGAYvNSyu-28" value="NAO" style="edgeLabel;html=1;align=center;verticalAlign=middle;resizable=0;points=[];" vertex="1" connectable="0" parent="4LlOStWPBczDGAYvNSyu-25">
          <mxGeometry x="-0.475" y="2" relative="1" as="geometry">
            <mxPoint as="offset" />
          </mxGeometry>
        </mxCell>
        <mxCell id="4LlOStWPBczDGAYvNSyu-31" style="edgeStyle=orthogonalEdgeStyle;rounded=0;orthogonalLoop=1;jettySize=auto;html=1;" edge="1" parent="1" source="4LlOStWPBczDGAYvNSyu-11" target="4LlOStWPBczDGAYvNSyu-15">
          <mxGeometry relative="1" as="geometry" />
        </mxCell>
        <mxCell id="4LlOStWPBczDGAYvNSyu-11" value="Confirmado status Stop?&lt;br&gt;(aguarda 10sec pela confirmação)" style="rounded=0;whiteSpace=wrap;html=1;" vertex="1" parent="1">
          <mxGeometry x="450" y="390" width="120" height="60" as="geometry" />
        </mxCell>
        <mxCell id="4LlOStWPBczDGAYvNSyu-27" style="edgeStyle=orthogonalEdgeStyle;rounded=0;orthogonalLoop=1;jettySize=auto;html=1;" edge="1" parent="1" source="4LlOStWPBczDGAYvNSyu-13" target="4LlOStWPBczDGAYvNSyu-14">
          <mxGeometry relative="1" as="geometry" />
        </mxCell>
        <mxCell id="4LlOStWPBczDGAYvNSyu-13" value="Pega ID do processo do Serviço" style="rounded=0;whiteSpace=wrap;html=1;" vertex="1" parent="1">
          <mxGeometry x="540" y="470" width="120" height="60" as="geometry" />
        </mxCell>
        <mxCell id="4LlOStWPBczDGAYvNSyu-32" style="edgeStyle=orthogonalEdgeStyle;rounded=0;orthogonalLoop=1;jettySize=auto;html=1;entryX=1;entryY=0.5;entryDx=0;entryDy=0;" edge="1" parent="1" source="4LlOStWPBczDGAYvNSyu-14" target="4LlOStWPBczDGAYvNSyu-15">
          <mxGeometry relative="1" as="geometry" />
        </mxCell>
        <mxCell id="4LlOStWPBczDGAYvNSyu-14" value="Comanda Kill do processo" style="rounded=0;whiteSpace=wrap;html=1;" vertex="1" parent="1">
          <mxGeometry x="540" y="560" width="120" height="60" as="geometry" />
        </mxCell>
        <mxCell id="4LlOStWPBczDGAYvNSyu-33" style="edgeStyle=orthogonalEdgeStyle;rounded=0;orthogonalLoop=1;jettySize=auto;html=1;entryX=0.5;entryY=0;entryDx=0;entryDy=0;" edge="1" parent="1" source="4LlOStWPBczDGAYvNSyu-15" target="4LlOStWPBczDGAYvNSyu-16">
          <mxGeometry relative="1" as="geometry" />
        </mxCell>
        <mxCell id="4LlOStWPBczDGAYvNSyu-15" value="Comanda Start" style="rounded=0;whiteSpace=wrap;html=1;" vertex="1" parent="1">
          <mxGeometry x="450" y="780" width="120" height="60" as="geometry" />
        </mxCell>
        <mxCell id="4LlOStWPBczDGAYvNSyu-16" value="Confirmado status Running?&lt;br style=&quot;border-color: var(--border-color);&quot;&gt;(aguarda 30sec pela confirmação)" style="rounded=0;whiteSpace=wrap;html=1;" vertex="1" parent="1">
          <mxGeometry x="450" y="870" width="120" height="60" as="geometry" />
        </mxCell>
        <mxCell id="4LlOStWPBczDGAYvNSyu-21" value="&#xa;&lt;span style=&quot;color: rgb(0, 0, 0); font-family: Helvetica; font-size: 12px; font-style: normal; font-variant-ligatures: normal; font-variant-caps: normal; font-weight: 400; letter-spacing: normal; orphans: 2; text-align: center; text-indent: 0px; text-transform: none; widows: 2; word-spacing: 0px; -webkit-text-stroke-width: 0px; background-color: rgb(251, 251, 251); text-decoration-thickness: initial; text-decoration-style: initial; text-decoration-color: initial; float: none; display: inline !important;&quot;&gt;Para serviços em paralelo&lt;/span&gt;&#xa;&#xa;" style="text;html=1;strokeColor=none;fillColor=none;align=center;verticalAlign=middle;whiteSpace=wrap;rounded=0;" vertex="1" parent="1">
          <mxGeometry x="290" y="275" width="220" height="30" as="geometry" />
        </mxCell>
        <mxCell id="4LlOStWPBczDGAYvNSyu-30" value="Inicia serviços em paralelo" style="text;html=1;strokeColor=none;fillColor=none;align=center;verticalAlign=middle;whiteSpace=wrap;rounded=0;" vertex="1" parent="1">
          <mxGeometry x="290" y="730" width="220" height="30" as="geometry" />
        </mxCell>
      </root>
    </mxGraphModel>
  </diagram>
</mxfile>
